<svg width="90" height="90" viewBox="0 0 90 90" fill="none" xmlns="http://www.w3.org/2000/svg">
<path d="M26 22.2361V22H36.8641L57.3726 43.9617V31.0517L65.8246 22H88C88 22 84.7408 23.2384 83.1719 24.5851C81.6031 25.9357 81.658 28.3041 81.658 28.3041L65.2089 28.366V38.7992C65.2089 38.7992 70.6527 38.6406 71.5312 38.7373C72.4098 38.8341 73.1824 39.5577 73.1824 39.5577C73.1824 39.5577 74.763 40.8696 73.7904 42.3324C72.802 43.4741 71.6607 42.7891 71.6607 42.7891C71.6607 42.7891 73.0648 42.9748 73.5197 42.0499C74.2179 40.6336 73.0962 39.7435 71.7666 39.7744C65.6835 39.9099 65.205 46.4113 65.205 46.4113V64H64.9853L26 22.2361Z" fill="#077EA2"/>
<path d="M63.996 66.7527V67H52.9574L32.1194 43.9947V57.5141L23.5316 66.9959H1C1 66.9959 4.31159 65.6987 5.90562 64.288C7.49965 62.8732 7.44386 60.3923 7.44386 60.3923L24.1573 60.3274V49.3984C24.1573 49.3984 18.626 49.5646 17.7333 49.4632C16.8407 49.3619 16.0556 48.6038 16.0556 48.6038C16.0556 48.6038 14.4496 47.2296 15.4379 45.6973C16.4422 44.5014 17.6018 45.2189 17.6018 45.2189C17.6018 45.2189 16.1752 45.0243 15.7129 45.9932C15.0035 47.4769 16.1433 48.4092 17.4942 48.3768C23.6751 48.2349 24.1612 41.4245 24.1612 41.4245V23H24.3844L64 66.7527H63.996Z" fill="#077EA2"/>
</svg>
