<svg xmlns="http://www.w3.org/2000/svg" version="1.1" xmlns:xlink="http://www.w3.org/1999/xlink" width="115" height="115"><svg width="115" height="115" viewBox="0 0 115 115" fill="none" xmlns="http://www.w3.org/2000/svg">
<path d="M33 27.3148V27H47.3687L74.4928 56.2822V39.0689L85.6713 27H115C115 27 110.689 28.6512 108.615 30.4468C106.54 32.2476 106.612 35.4054 106.612 35.4054L84.8569 35.488V49.399C84.8569 49.399 92.0568 49.1874 93.2187 49.3164C94.3807 49.4454 95.4026 50.4103 95.4026 50.4103C95.4026 50.4103 97.493 52.1595 96.2066 54.1099C94.8994 55.6321 93.3899 54.7188 93.3899 54.7188C93.3899 54.7188 95.247 54.9665 95.8487 53.7333C96.772 51.8447 95.2885 50.658 93.53 50.6993C85.4846 50.8799 84.8517 59.5484 84.8517 59.5484V83H84.5612L33 27.3148Z" fill="#077EA2"></path>
<path d="M82.9948 86.6684V87H68.4518L40.9986 56.1519V74.2803L29.6845 86.9946H0C0 86.9946 4.36289 85.2551 6.46296 83.3635C8.56303 81.4664 8.48953 78.1397 8.48953 78.1397L30.5088 78.0527V63.3978C30.5088 63.3978 23.2215 63.6207 22.0455 63.4848C20.8694 63.3489 19.8352 62.3324 19.8352 62.3324C19.8352 62.3324 17.7193 60.4897 19.0214 58.435C20.3444 56.8314 21.8722 57.7935 21.8722 57.7935C21.8722 57.7935 19.9927 57.5326 19.3836 58.8318C18.4491 60.8213 19.9507 62.0715 21.7305 62.028C29.8735 61.8378 30.514 52.7056 30.514 52.7056V28H30.808L83 86.6684H82.9948Z" fill="#077EA2"></path>
</svg><style>@media (prefers-color-scheme: light) { :root { filter: none; } }
@media (prefers-color-scheme: dark) { :root { filter: none; } }
</style></svg>