<?xml version="1.0" encoding="UTF-8"?>
<svg id="Calque_1" data-name="Calque 1" xmlns="http://www.w3.org/2000/svg" viewBox="0 0 219.08 111.54">
  <defs>
    <style>
      .cls-1 {
        fill: #077ea3;
        stroke-width: 0px;
      }
    </style>
  </defs>
  <path class="cls-1" d="m61,.61v-.61h27.7l52.29,56.75V23.39L162.54,0h56.54s-8.31,3.2-12.31,6.68c-4,3.49-3.86,9.61-3.86,9.61l-41.94.16v26.96s13.88-.41,16.12-.16,4.21,2.12,4.21,2.12c0,0,4.03,3.39,1.55,7.17-2.52,2.95-5.43,1.18-5.43,1.18,0,0,3.58.48,4.74-1.91,1.78-3.66-1.08-5.96-4.47-5.88-15.51.35-16.73,17.15-16.73,17.15v45.45h-.56L61,.61Z"/>
  <path class="cls-1" d="m158.08,110.93v.61h-27.7s-52.29-56.75-52.29-56.75v33.35s-21.55,23.39-21.55,23.39H0s8.31-3.2,12.31-6.68c4-3.49,3.86-9.61,3.86-9.61l41.94-.16v-26.96s-13.88.41-16.12.16-4.21-2.12-4.21-2.12c0,0-4.03-3.39-1.55-7.17,2.52-2.95,5.43-1.18,5.43-1.18,0,0-3.58-.48-4.74,1.91-1.78,3.66,1.08,5.96,4.47,5.88,15.51-.35,16.73-17.15,16.73-17.15V3h.56s99.41,107.93,99.41,107.93Z"/>
</svg>